<svg width="51" height="51" viewBox="0 0 51 51" fill="none" xmlns="http://www.w3.org/2000/svg">
<rect x="0.541992" y="0.5" width="50" height="50" rx="10" fill="#032B63"/>
<path d="M17.5455 36.5V33.5497L25.3726 25.8768C26.1212 25.1209 26.745 24.4493 27.2441 23.8622C27.7431 23.2751 28.1174 22.7063 28.3669 22.1559C28.6164 21.6055 28.7412 21.0183 28.7412 20.3945C28.7412 19.6826 28.5798 19.0735 28.2568 18.5671C27.9339 18.0534 27.4899 17.6571 26.9248 17.3782C26.3597 17.0993 25.7175 16.9599 24.9983 16.9599C24.2571 16.9599 23.6076 17.114 23.0498 17.4222C22.492 17.7231 22.059 18.1525 21.7508 18.7102C21.4499 19.268 21.2994 19.9322 21.2994 20.7028H17.4134C17.4134 19.2717 17.74 18.0277 18.3932 16.9709C19.0464 15.9141 19.9454 15.0958 21.0903 14.516C22.2425 13.9362 23.5635 13.6463 25.0534 13.6463C26.5652 13.6463 27.8936 13.9289 29.0384 14.494C30.1833 15.0591 31.0713 15.8333 31.7025 16.8168C32.341 17.8002 32.6602 18.9231 32.6602 20.1854C32.6602 21.0294 32.4988 21.8587 32.1759 22.6733C31.853 23.4879 31.2842 24.3906 30.4695 25.3814C29.6623 26.3722 28.5284 27.5721 27.0679 28.9812L23.1819 32.9332V33.0874H33.0015V36.5H17.5455Z" fill="white"/>
</svg>
