<svg width="51" height="51" viewBox="0 0 51 51" fill="none" xmlns="http://www.w3.org/2000/svg">
<rect x="0.541992" y="0.5" width="50" height="50" rx="10" fill="#032B63"/>
<path d="M24.6368 36.8082C23.0516 36.8082 21.6425 36.5367 20.4095 35.9936C19.1839 35.4505 18.2152 34.6946 17.5033 33.7259C16.7914 32.7571 16.4134 31.6379 16.3694 30.3683H20.5086C20.5453 30.9774 20.7471 31.5095 21.1141 31.9645C21.481 32.4122 21.9691 32.7608 22.5782 33.0103C23.1874 33.2598 23.8699 33.3846 24.6258 33.3846C25.4331 33.3846 26.1486 33.2451 26.7725 32.9663C27.3963 32.68 27.8843 32.2837 28.2366 31.7773C28.5889 31.271 28.7613 30.6875 28.754 30.027C28.7613 29.3445 28.5852 28.7427 28.2256 28.2216C27.866 27.7005 27.3449 27.2932 26.6624 26.9996C25.9872 26.7061 25.1726 26.5593 24.2185 26.5593H22.2259V23.4109H24.2185C25.0038 23.4109 25.69 23.2751 26.2771 23.0036C26.8715 22.732 27.3376 22.3504 27.6752 21.8587C28.0128 21.3596 28.1779 20.7835 28.1705 20.1303C28.1779 19.4918 28.0348 18.9377 27.7412 18.468C27.455 17.991 27.0477 17.6204 26.5193 17.3562C25.9982 17.092 25.3854 16.9599 24.6808 16.9599C23.991 16.9599 23.3525 17.0846 22.7654 17.3342C22.1782 17.5837 21.7049 17.9396 21.3453 18.402C20.9856 18.857 20.7948 19.4001 20.7728 20.0312H16.8428C16.8721 18.7689 17.2354 17.6607 17.9326 16.7067C18.6372 15.7453 19.5766 14.9967 20.7508 14.4609C21.925 13.9178 23.2424 13.6463 24.7029 13.6463C26.2074 13.6463 27.5137 13.9289 28.6219 14.494C29.7374 15.0517 30.5998 15.804 31.2089 16.7507C31.818 17.6974 32.1226 18.7433 32.1226 19.8881C32.1299 21.1578 31.7557 22.2219 30.9997 23.0806C30.2512 23.9393 29.2677 24.5007 28.0494 24.7649V24.9411C29.6347 25.1612 30.8493 25.7483 31.6933 26.7024C32.5446 27.6491 32.9666 28.8271 32.9593 30.2362C32.9593 31.4985 32.5996 32.6287 31.8804 33.6268C31.1685 34.6175 30.1851 35.3955 28.9301 35.9606C27.6825 36.5257 26.2514 36.8082 24.6368 36.8082Z" fill="white"/>
</svg>
