<svg width="60" height="60" viewBox="0 0 60 60" fill="none" xmlns="http://www.w3.org/2000/svg">
<rect width="60" height="60" rx="10" fill="#032B63"/>
<path fill-rule="evenodd" clip-rule="evenodd" d="M15.7461 19.0383C15.1072 19.192 14.5031 19.702 14.1985 20.3451L14 20.764V29.8129V38.8618L14.1713 39.2274C14.4813 39.8891 14.9584 40.3252 15.5878 40.5221C15.9801 40.6447 16.1889 40.6466 29.9952 40.6466C45.5219 40.6466 44.3492 40.6786 44.998 40.2373C45.3761 39.9802 45.609 39.6961 45.8323 39.2196L46 38.8618V29.8129V20.764L45.807 20.3567C45.5705 19.8578 45.1456 19.4212 44.6685 19.187L44.3092 19.0105L30.1252 19.001C22.3241 18.9957 15.8534 19.0125 15.7461 19.0383ZM42.6122 23.0744C42.7272 23.1224 42.8671 23.2273 42.9233 23.3075C43.1323 23.6058 43.0002 24.1453 42.6828 24.2899C42.561 24.3454 41.4938 24.3648 38.5516 24.3648H34.5847L34.3902 24.1831C34.0417 23.8575 34.1505 23.2706 34.5951 23.0771C34.8876 22.9497 42.308 22.9473 42.6122 23.0744ZM22.1866 25.6151C22.4741 25.8413 22.4926 25.9798 22.4727 27.7616C22.454 29.4268 22.4539 29.4273 22.3021 29.5889C22.2186 29.6778 22.0495 29.7785 21.9264 29.8126C21.6257 29.8962 17.7646 29.8942 17.4627 29.8104C17.3351 29.7749 17.1731 29.6727 17.1026 29.5831C16.9805 29.4278 16.9747 29.34 16.9768 27.6909C16.9791 25.8438 16.9938 25.746 17.2946 25.5794C17.4109 25.5149 17.9543 25.4959 19.7371 25.4941C21.9239 25.4921 22.0373 25.4977 22.1866 25.6151ZM21.0701 33.1566C21.3525 33.2746 21.4834 33.4809 21.4834 33.8081C21.4834 34.0261 21.4466 34.1176 21.3003 34.2639L21.1173 34.4469L19.2494 34.4456C17.5743 34.4443 17.3678 34.433 17.248 34.336C16.828 33.9957 16.8952 33.3677 17.374 33.1592C17.6598 33.0348 20.7734 33.0326 21.0701 33.1566ZM27.2697 33.1566C27.7613 33.362 27.8358 33.9907 27.4095 34.336C27.2897 34.433 27.0832 34.4443 25.4081 34.4456L23.5403 34.4469L23.3572 34.2639C23.0162 33.9229 23.1261 33.3539 23.5703 33.1606C23.8593 33.0349 26.9705 33.0315 27.2697 33.1566ZM33.4734 33.1582C33.715 33.2592 33.8826 33.5318 33.8826 33.8239C33.8826 33.9647 33.8217 34.082 33.6697 34.234L33.4568 34.4469H31.6171C29.5962 34.4469 29.5997 34.4476 29.3992 34.0598C29.3363 33.9383 29.3138 33.7947 29.3377 33.6675C29.3784 33.4507 29.6417 33.1625 29.8434 33.1139C29.9123 33.0974 30.7093 33.0805 31.6145 33.0765C32.9082 33.0708 33.306 33.0883 33.4734 33.1582ZM39.7534 33.1939C40.1262 33.4409 40.1628 34.0021 39.8248 34.2866L39.6343 34.4469H37.7965H35.9587L35.7682 34.2866C35.3941 33.9718 35.4677 33.3892 35.9098 33.1668C36.1895 33.0261 39.5357 33.0497 39.7534 33.1939ZM29.3581 36.2624C29.7309 36.5094 29.7675 37.0706 29.4294 37.3551L29.239 37.5154H23.2994H17.3599L17.1672 37.3228C16.8256 36.9811 16.9312 36.4213 17.374 36.227C17.678 36.0937 29.1546 36.1275 29.3581 36.2624Z" fill="white"/>
</svg>
