<svg width="60" height="60" viewBox="0 0 60 60" fill="none" xmlns="http://www.w3.org/2000/svg">
<rect width="60" height="60" rx="10" fill="#032B63"/>
<path fill-rule="evenodd" clip-rule="evenodd" d="M29.6718 15.0327C29.5504 15.0625 16.3588 20.9845 15.8394 21.2423C15.3115 21.5044 15.0638 21.8488 15.0069 22.3999C14.9507 22.9451 15.3176 23.5385 15.8479 23.7601C16.1363 23.8806 43.8521 23.8806 44.1404 23.7601C44.6708 23.5385 45.0377 22.9451 44.9814 22.3999C44.9425 22.0223 44.7638 21.6646 44.5154 21.4671C44.3406 21.328 31.3781 15.4531 30.535 15.1309C30.1857 14.9974 29.933 14.9686 29.6718 15.0327ZM17.8909 25.1214C17.5773 25.2233 17.3927 25.4725 17.3927 25.7938C17.3927 25.9741 17.4338 26.0622 17.5919 26.2204C17.7665 26.3949 17.8283 26.4196 18.0901 26.4196H18.3891V32.5671V38.7144L18.0143 38.7383C17.5283 38.7692 17.1456 38.9954 16.896 39.3991C16.5737 39.9203 16.6782 40.6476 17.1382 41.0841C17.5237 41.45 16.5502 41.4242 30.0078 41.4242H42.2752L42.538 41.2852C43.7897 40.623 43.3127 38.7281 41.8942 38.7281H41.5993V32.5739V26.4196H41.8845C42.6842 26.4196 42.8586 25.4184 42.1084 25.1341C41.9261 25.0651 18.1025 25.0525 17.8909 25.1214ZM25.188 32.5739V38.7281H23.1659H21.1438V32.5739V26.4196H23.1659H25.188V32.5739ZM32.0312 32.5885L32.0461 38.7281H29.9945H27.9428V32.5731V26.4181L29.9795 26.4335L32.0163 26.4489L32.0312 32.5885ZM38.8446 32.5739V38.7281H36.7931H34.7417V32.613C34.7417 29.2496 34.7593 26.4802 34.7808 26.4587C34.8023 26.4372 35.7254 26.4196 36.8322 26.4196H38.8446V32.5739ZM16.1032 42.299C15.4203 42.4366 14.9286 43.0987 15.0085 43.7732C15.0503 44.1262 15.1645 44.35 15.4388 44.6164C15.8632 45.0286 14.7611 44.9996 29.9789 44.9996C39.8053 44.9996 43.7892 44.9812 43.973 44.9349C44.5362 44.793 44.9601 44.2294 44.9601 43.6222C44.9601 43.0637 44.6656 42.6127 44.1489 42.3798C43.9253 42.279 43.2762 42.2738 30.1114 42.2659C22.5197 42.2614 16.216 42.2763 16.1032 42.299Z" fill="white"/>
</svg>
