<svg width="60" height="60" viewBox="0 0 60 60" fill="none" xmlns="http://www.w3.org/2000/svg">
<rect width="60" height="60" rx="10" fill="#032B63"/>
<path fill-rule="evenodd" clip-rule="evenodd" d="M20.0032 15.0947C19.2174 15.2799 18.5684 15.8173 18.2139 16.5765L18 17.0344V30.0094V42.9844L18.2202 43.4611C18.4824 44.0289 18.9435 44.4808 19.5513 44.7657L19.9844 44.9688L26.8154 44.9919C33.9396 45.016 34.2347 45.0049 34.8497 44.6912C35.2542 44.4849 35.701 44.018 35.9513 43.5403C36.1514 43.1582 36.1639 43.0737 36.1895 41.9349L36.2166 40.7328H30.3871C25.396 40.7328 24.4931 40.716 24.1085 40.6158C22.6391 40.233 21.5818 39 21.3923 37.448C21.3456 37.0662 21.3226 35.4654 21.3359 33.5327L21.3582 30.2632L21.5724 30.0791L21.7866 29.8949H24.6062H27.4259V25.7676V21.6402L27.649 21.4171L27.8721 21.194H32.042H36.2118L36.1884 19.0379L36.165 16.8818L35.9029 16.3983C35.6139 15.8654 35.2052 15.4873 34.6324 15.2232C34.2818 15.0614 34.1378 15.0483 32.4572 15.025L30.6574 15L30.3665 15.7119C29.9016 16.85 30.1492 16.7673 27.2097 16.7673C25.1349 16.7673 24.6851 16.7483 24.5519 16.655C24.4638 16.5933 24.2463 16.1983 24.0686 15.7773L23.7456 15.0118L22.0177 15.0195C21.0673 15.0237 20.1608 15.0575 20.0032 15.0947ZM25.2126 15.0932C25.2126 15.1379 25.2481 15.241 25.2916 15.3222C25.3663 15.4618 25.4694 15.4698 27.197 15.4698C28.9245 15.4698 29.0277 15.4618 29.1024 15.3222C29.1458 15.241 29.1814 15.1379 29.1814 15.0932C29.1814 15.0377 28.5506 15.0118 27.197 15.0118C25.8433 15.0118 25.2126 15.0377 25.2126 15.0932ZM28.7061 30.2193C28.6828 38.8614 28.7321 38.0948 28.1388 39.0346L27.8858 39.4353L33.0175 39.4342C37.2725 39.4333 38.231 39.4138 38.6272 39.3204C39.9663 39.0047 41.0168 38.0581 41.5339 36.7013C41.7192 36.2153 41.7296 36.104 41.7582 34.3073L41.7883 32.4231L41.4572 32.3349C40.8455 32.1721 40.0762 31.7087 39.5614 31.1932C38.7303 30.3608 38.3157 29.3741 38.3103 28.2158C38.3047 27.0405 38.6701 26.087 39.4469 25.25C39.9941 24.6603 40.4819 24.3339 41.2023 24.0753L41.7366 23.8835L41.7586 23.1875L41.7805 22.4915H35.2537H28.7269L28.7061 30.2193ZM42.2126 25.1705C41.6072 25.2375 40.8861 25.6087 40.4448 26.0805C39.0221 27.6015 39.4897 30.0319 41.3735 30.9067C41.8276 31.1175 41.9714 31.1467 42.5761 31.1502C43.3941 31.155 43.8554 31.0159 44.4061 30.5987C45.926 29.4473 46.0841 27.3005 44.745 25.9962C44.0831 25.3514 43.195 25.0619 42.2126 25.1705ZM35.6374 25.7205C35.8727 25.9942 35.8727 26.316 35.6373 26.5896L35.4531 26.8038H33.3919H31.3307L31.1338 26.6188C30.7789 26.2854 30.9174 25.7024 31.3948 25.5202C31.4577 25.4961 32.3967 25.4832 33.4813 25.4914L35.4533 25.5063L35.6374 25.7205ZM42.9959 26.143C42.9959 26.3295 43.0382 26.3725 43.298 26.4503C43.4642 26.5001 43.6196 26.5725 43.6435 26.6112C43.6674 26.6498 43.6472 26.8397 43.5984 27.0331C43.5286 27.3107 43.4839 27.374 43.3865 27.3336C42.9107 27.1361 42.4081 27.1733 42.4816 27.4005C42.4977 27.4501 42.7285 27.6109 42.9948 27.7578C43.6001 28.0919 43.7846 28.3305 43.7846 28.7793C43.7846 29.1836 43.6192 29.4659 43.2574 29.6794C43.0411 29.807 42.9959 29.8786 42.9959 30.0933V30.3528H42.6143C42.2423 30.3528 42.2327 30.3472 42.2327 30.1268C42.2327 29.9306 42.1949 29.8903 41.9465 29.8215C41.4572 29.6861 41.4379 29.6576 41.5422 29.223L41.6342 28.8393L41.9025 28.9513C42.05 29.013 42.3135 29.053 42.4879 29.0403C42.7465 29.0214 42.8051 28.989 42.8051 28.8645C42.8051 28.7564 42.6757 28.6431 42.3612 28.4761C42.117 28.3465 41.8327 28.1557 41.7292 28.0523C41.3145 27.6376 41.4564 26.9083 42.0136 26.5902C42.2599 26.4496 42.3079 26.3818 42.3084 26.1741C42.309 25.9311 42.3159 25.9261 42.6525 25.9261C42.979 25.9261 42.9959 25.9368 42.9959 26.143ZM35.6341 29.1664C35.8967 29.4289 35.8902 29.8385 35.6196 30.0894L35.4176 30.2765H33.3646H31.3115L31.1242 30.0891C30.9948 29.9598 30.9368 29.817 30.9368 29.6278C30.9368 29.4386 30.9948 29.2957 31.1242 29.1664L31.3115 28.979H33.3792H35.4468L35.6341 29.1664ZM22.7099 34.4934C22.7319 37.7676 22.7335 37.797 22.9069 38.1219C23.1439 38.5657 23.5822 38.9891 24.0354 39.2122C24.3445 39.3643 24.5263 39.397 25.0599 39.3961C25.6136 39.3952 25.7646 39.3653 26.0903 39.1928C26.5471 38.9507 26.9626 38.5302 27.208 38.0615C27.3875 37.7185 27.3878 37.7139 27.4099 34.4552L27.4321 31.1924H25.0599H22.6878L22.7099 34.4934ZM37.3929 32.6659C37.7522 33.0838 37.5267 33.6427 36.9558 33.7485C36.8147 33.7746 35.4913 33.7855 34.0149 33.7727L31.3305 33.7492L31.1337 33.5642C30.7789 33.2308 30.9175 32.6476 31.3948 32.4657C31.4577 32.4417 32.7916 32.4288 34.359 32.4368L37.2087 32.4517L37.3929 32.6659Z" fill="white"/>
</svg>
