<svg width="48" height="48" viewBox="0 0 48 48" fill="none" xmlns="http://www.w3.org/2000/svg">
<rect width="48" height="48" rx="16" fill="white"/>
<path d="M12 15C12 16.1935 13.2643 17.3381 15.5147 18.182C17.7652 19.0259 20.8174 19.5 24 19.5C27.1826 19.5 30.2348 19.0259 32.4853 18.182C34.7357 17.3381 36 16.1935 36 15M12 15C12 13.8065 13.2643 12.6619 15.5147 11.818C17.7652 10.9741 20.8174 10.5 24 10.5C27.1826 10.5 30.2348 10.9741 32.4853 11.818C34.7357 12.6619 36 13.8065 36 15M12 15V24M36 15V24M12 24C12 25.1935 13.2643 26.3381 15.5147 27.182C17.7652 28.0259 20.8174 28.5 24 28.5C27.1826 28.5 30.2348 28.0259 32.4853 27.182C34.7357 26.3381 36 25.1935 36 24M12 24V33C12 34.1935 13.2643 35.3381 15.5147 36.182C17.7652 37.0259 20.8174 37.5 24 37.5C27.1826 37.5 30.2348 37.0259 32.4853 36.182C34.7357 35.3381 36 34.1935 36 33V24" stroke="#3B3E44" stroke-width="1.5" stroke-linecap="round" stroke-linejoin="round"/>
</svg>
