<svg width="48" height="48" viewBox="0 0 48 48" fill="none" xmlns="http://www.w3.org/2000/svg">
<path d="M34.5 18.402C34.956 18.6653 35.3348 19.044 35.5981 19.5C35.8614 19.9561 36 20.4734 36 21V33C36 33.7956 35.6839 34.5587 35.1213 35.1213C34.5587 35.6839 33.7956 36 33 36H21C20.2044 36 19.4413 35.6839 18.8787 35.1213C18.3161 34.5587 18 33.7956 18 33V21C18 20.2044 18.3161 19.4413 18.8787 18.8787C19.4413 18.3161 20.2044 18 21 18H25.5M13.5 29.601C13.0435 29.3374 12.6645 28.9583 12.4012 28.5017C12.1379 28.045 11.9995 27.5271 12 27V15C12 14.2044 12.3161 13.4413 12.8787 12.8787C13.4413 12.3161 14.2044 12 15 12H27C27.7957 12 28.5587 12.3161 29.1213 12.8787C29.6839 13.4413 30 14.2044 30 15V27C30 27.7956 29.6839 28.5587 29.1213 29.1213C28.5587 29.6839 27.7957 30 27 30H22.5" stroke="#3B3E44" stroke-width="1.5" stroke-linecap="round" stroke-linejoin="round"/>
</svg>
