<svg width="60" height="60" viewBox="0 0 60 60" fill="none" xmlns="http://www.w3.org/2000/svg">
<path d="M46.9303 44.3859C45.675 44.3861 44.4478 44.014 43.4039 43.3167C42.3601 42.6194 41.5464 41.6282 41.0659 40.4685C40.5854 39.3088 40.4596 38.0326 40.7044 36.8014C40.9492 35.5701 41.5536 34.4392 42.4411 33.5514C43.3287 32.6637 44.4596 32.0591 45.6908 31.8142C46.922 31.5692 48.1982 31.6948 49.358 32.1752C50.5178 32.6555 51.5091 33.469 52.2066 34.5128C52.904 35.5565 53.2763 36.7837 53.2763 38.039C53.2743 39.7215 52.6051 41.3346 51.4155 42.5244C50.2258 43.7142 48.6129 44.3837 46.9303 44.3859ZM46.9303 33.5671C46.0458 33.567 45.1812 33.8291 44.4456 34.3203C43.7101 34.8116 43.1368 35.5099 42.7982 36.3271C42.4596 37.1442 42.3709 38.0433 42.5433 38.9109C42.7158 39.7784 43.1416 40.5753 43.767 41.2008C44.3923 41.8263 45.1891 42.2523 46.0566 42.4249C46.9241 42.5975 47.8233 42.509 48.6405 42.1706C49.4577 41.8321 50.1561 41.259 50.6476 40.5236C51.139 39.7881 51.4013 38.9235 51.4013 38.039C51.3998 36.8536 50.9283 35.7172 50.0902 34.8789C49.2521 34.0406 48.1157 33.5689 46.9303 33.5671Z" fill="#3B3E44"/>
<path d="M43.2881 42.7219H45.1631V51.9488H43.2881V42.7219Z" fill="#3B3E44"/>
<path d="M48.6965 42.7219H50.5715V51.9488H48.6965V42.7219Z" fill="#3B3E44"/>
<path d="M58.4935 58.2966H27.2522V54.9919C27.2537 53.9367 27.6736 52.9252 28.4198 52.1791C29.166 51.4331 30.1776 51.0134 31.2328 51.0122H54.6563C55.6726 51.0144 56.6467 51.4191 57.3654 52.1377C58.0842 52.8563 58.4891 53.8302 58.4916 54.8466L58.4935 58.2966ZM29.1272 56.4216H56.6185V54.8438C56.6177 54.3242 56.4109 53.8261 56.0434 53.4588C55.6759 53.0915 55.1777 52.8849 54.6581 52.8844H31.2328C30.6747 52.8849 30.1395 53.1068 29.7448 53.5013C29.3501 53.8959 29.1279 54.431 29.1272 54.9891V56.4216Z" fill="#3B3E44"/>
<path d="M33.9722 44.4056C31.3633 44.4047 28.7802 43.8888 26.3712 42.8873C23.9622 41.8858 21.7747 40.4185 19.934 38.5697C19.7583 38.3939 19.6595 38.1554 19.6595 37.9068C19.6595 37.6583 19.7583 37.4198 19.934 37.244L46.7118 10.4653C46.8877 10.2895 47.1261 10.1908 47.3747 10.1908C47.6233 10.1908 47.8617 10.2895 48.0375 10.4653C51.1156 13.5495 53.0959 17.5591 53.6742 21.878C54.2524 26.1969 53.3965 30.5862 51.2381 34.3715L49.6106 33.4397C51.4857 30.1514 52.2774 26.3562 51.8736 22.5925C51.4697 18.8288 49.8907 15.288 47.3606 12.4725L21.9375 37.89C24.6478 40.3437 28.0432 41.9106 31.6689 42.381C35.2945 42.8513 38.9773 42.2025 42.224 40.5215L43.0847 42.1875C40.2676 43.6432 37.1431 44.4037 33.9722 44.4056Z" fill="#3B3E44"/>
<path d="M25.6995 19.7109L27.5566 19.4464L29.0428 29.8813L27.1856 30.1458L25.6995 19.7109Z" fill="#3B3E44"/>
<path d="M27.4286 19.3878L28.7542 18.0622L34.4067 23.7147L33.0811 25.0403L27.4286 19.3878Z" fill="#3B3E44"/>
<path d="M28.749 18.3043L29.107 16.464L39.104 18.4084L38.7461 20.2488L28.749 18.3043Z" fill="#3B3E44"/>
<path d="M25.7813 20.625C24.9469 20.625 24.1312 20.3776 23.4374 19.914C22.7437 19.4505 22.2029 18.7916 21.8836 18.0207C21.5643 17.2498 21.4808 16.4016 21.6436 15.5832C21.8063 14.7649 22.2081 14.0131 22.7981 13.4231C23.3881 12.8331 24.1399 12.4313 24.9582 12.2686C25.7766 12.1058 26.6248 12.1893 27.3957 12.5086C28.1666 12.8279 28.8255 13.3687 29.289 14.0624C29.7526 14.7562 30 15.5719 30 16.4063C29.9988 17.5248 29.5539 18.5971 28.763 19.388C27.9721 20.1789 26.8998 20.6238 25.7813 20.625ZM25.7813 14.0625C25.3177 14.0625 24.8646 14.2 24.4791 14.4575C24.0937 14.715 23.7933 15.0811 23.6159 15.5093C23.4385 15.9376 23.3921 16.4089 23.4825 16.8635C23.573 17.3181 23.7962 17.7358 24.124 18.0635C24.4517 18.3913 24.8694 18.6145 25.324 18.705C25.7787 18.7954 26.2499 18.749 26.6782 18.5716C27.1064 18.3942 27.4725 18.0938 27.73 17.7084C27.9875 17.3229 28.125 16.8698 28.125 16.4063C28.125 15.7847 27.8781 15.1885 27.4385 14.749C26.999 14.3094 26.4029 14.0625 25.7813 14.0625Z" fill="#3B3E44"/>
<path d="M11.1618 15.029C10.9225 15.0295 10.692 14.9383 10.5177 14.7743C10.3434 14.6103 10.2384 14.3858 10.2243 14.1469C10.0367 10.9205 11.1371 7.75165 13.2838 5.33587C15.4304 2.92008 18.448 1.45485 21.674 1.26186C21.7971 1.25465 21.9204 1.27177 22.0369 1.31223C22.1534 1.35269 22.2608 1.4157 22.353 1.49766C22.4451 1.57963 22.5202 1.67894 22.574 1.78992C22.6278 1.90091 22.6591 2.0214 22.6663 2.14451C22.6736 2.26763 22.6564 2.39095 22.616 2.50745C22.5755 2.62395 22.5125 2.73134 22.4305 2.82349C22.3486 2.91564 22.2493 2.99074 22.1383 3.04451C22.0273 3.09827 21.9068 3.12965 21.7837 3.13686C19.0549 3.30207 16.5029 4.5426 14.6874 6.58646C12.8718 8.63033 11.9407 11.3107 12.0984 14.04C12.113 14.2881 12.0285 14.5319 11.8634 14.7177C11.6983 14.9035 11.4662 15.0162 11.2181 15.0309L11.1618 15.029Z" fill="#3B3E44"/>
<path d="M14.9063 14.8126C14.6669 14.813 14.4365 14.7218 14.2622 14.5578C14.0879 14.3938 13.9829 14.1693 13.9688 13.9304C13.8386 11.697 14.6 9.50331 16.0858 7.83084C17.5716 6.15837 19.6604 5.14386 21.8935 5.01005C22.1421 4.99538 22.3864 5.08009 22.5726 5.24553C22.7588 5.41097 22.8716 5.6436 22.8863 5.89224C22.901 6.14088 22.8163 6.38517 22.6508 6.57136C22.4854 6.75754 22.2527 6.87038 22.0041 6.88505C20.2677 6.99013 18.6437 7.7794 17.4883 9.07984C16.3328 10.3803 15.7401 12.0858 15.84 13.8226C15.8547 14.0705 15.7702 14.3142 15.6054 14.5C15.4405 14.6858 15.2086 14.7985 14.9607 14.8135L14.9063 14.8126Z" fill="#3B3E44"/>
<path d="M18.6497 14.5866C18.4104 14.587 18.1799 14.4959 18.0056 14.3319C17.8313 14.1678 17.7264 13.9434 17.7122 13.7044C17.676 13.0897 17.7612 12.4738 17.963 11.892C18.1649 11.3102 18.4794 10.7738 18.8886 10.3136C19.2978 9.85342 19.7936 9.47835 20.3478 9.20985C20.902 8.94134 21.5037 8.78468 22.1185 8.7488C22.3671 8.73425 22.6114 8.81907 22.7975 8.9846C22.9836 9.15013 23.0963 9.38281 23.1108 9.63145C23.1254 9.88009 23.0406 10.1243 22.875 10.3104C22.7095 10.4965 22.4768 10.6093 22.2282 10.6238C21.4842 10.6678 20.788 11.0053 20.2927 11.5621C19.7973 12.119 19.5433 12.8497 19.5863 13.5938C19.6009 13.8419 19.5164 14.0857 19.3513 14.2715C19.1862 14.4573 18.9541 14.57 18.706 14.5847C18.6872 14.5866 18.6676 14.5866 18.6497 14.5866Z" fill="#3B3E44"/>
</svg>
