<svg width="60" height="60" viewBox="0 0 60 60" fill="none" xmlns="http://www.w3.org/2000/svg">
<rect width="60" height="60" rx="10" fill="#032B63"/>
<path fill-rule="evenodd" clip-rule="evenodd" d="M22.8836 15.0509C21.8752 15.1783 21.0149 15.4204 20.1586 15.8178C16.4379 17.5444 14.3863 21.5455 15.1632 25.5597C15.3292 26.4178 15.5189 26.9731 15.9295 27.8031C16.7826 29.5274 18.1268 30.8787 19.8619 31.7561C20.669 32.1643 21.2952 32.3802 21.513 32.3256C21.8505 32.2409 21.9568 32.0681 22.1675 31.2621C22.4744 30.0881 22.6518 29.6148 23.1721 28.5807C23.3464 28.2344 23.4889 27.9376 23.4889 27.9211C23.4889 27.9046 23.4163 27.8905 23.3277 27.8898C23.0612 27.8878 22.3915 27.6225 21.9864 27.3585C21.5317 27.0623 21.1033 26.5974 20.854 26.1296C20.6666 25.7781 20.4403 25.0071 20.4403 24.7204C20.4403 24.5874 20.4037 24.5463 20.2361 24.491C19.9633 24.401 19.7954 24.155 19.7954 23.8455C19.7954 23.6439 19.8314 23.5635 19.9947 23.4002C20.1043 23.2906 20.2494 23.2009 20.3171 23.2009C20.4121 23.2009 20.4405 23.164 20.4413 23.0396C20.4435 22.6907 20.6246 22.0364 20.8338 21.6217C21.2381 20.8201 22.0472 20.1624 22.9612 19.8924C23.3805 19.7685 25.0038 19.7002 25.3394 19.7924C25.6624 19.881 25.8407 20.0845 25.8769 20.4057C25.9036 20.642 25.8867 20.688 25.6988 20.8931L25.4913 21.1196L24.4168 21.149C23.4059 21.1766 23.3224 21.1877 23.007 21.3355C22.6148 21.5192 22.2254 21.8979 22.0346 22.2811C21.9023 22.5468 21.7768 23.1108 21.8366 23.1707C21.8533 23.1873 22.3519 23.2009 22.9446 23.2009C24.1579 23.2009 24.2869 23.2332 24.451 23.5792C24.5808 23.8527 24.5255 24.1373 24.3005 24.353L24.1263 24.52L22.967 24.5389L21.8078 24.5578L21.8585 24.8812C22.0115 25.8568 22.7923 26.5131 23.8834 26.583L24.3976 26.616L24.6593 26.3008C25.7634 24.9706 27.1959 23.8388 28.7266 23.0871C29.585 22.6654 30.2418 22.4273 31.257 22.1694C32.0644 21.9642 32.2347 21.86 32.3205 21.5181C32.3765 21.2952 32.1516 20.6533 31.719 19.801C30.8641 18.1169 29.5082 16.7799 27.798 15.9344C26.971 15.5256 26.4167 15.3358 25.5546 15.1664C24.8471 15.0273 23.5233 14.9701 22.8836 15.0509ZM35.8885 15.049C35.543 15.1919 35.3794 15.6205 35.5406 15.9602C35.6778 16.2492 35.8419 16.3157 36.6143 16.3953C38.699 16.6101 40.3946 17.8504 41.4299 19.9177C41.6991 20.4552 41.976 21.1489 41.937 21.1879C41.9237 21.2011 41.5599 21.0375 41.1286 20.8242C40.48 20.5035 40.3091 20.4419 40.1419 20.4684C39.6829 20.5411 39.4212 21.0957 39.6635 21.4819C39.7584 21.6331 40.0612 21.8094 41.263 22.4133C42.8329 23.2021 43.0252 23.2621 43.3345 23.0595C43.439 22.991 43.7181 22.4932 44.2451 21.4354C44.6631 20.5964 45.0051 19.8629 45.0051 19.8053C45.0051 19.4396 44.6753 19.0967 44.3239 19.0972C44.0027 19.0976 43.8073 19.2846 43.503 19.8827C43.3456 20.1919 43.2024 20.445 43.1847 20.4451C43.167 20.4453 43.118 20.3465 43.0758 20.2255C42.9442 19.8488 42.3955 18.7812 42.1314 18.3879C41.1232 16.8866 39.8266 15.8656 38.2638 15.342C37.4463 15.0681 36.2108 14.9157 35.8885 15.049ZM32.4588 23.3147C28.1463 23.9745 24.6264 27.1535 23.5294 31.3794C22.8899 33.8431 23.1824 36.671 24.3085 38.9106C26.7875 43.8412 32.4022 46.1694 37.5852 44.416C40.78 43.3353 43.3337 40.7827 44.4102 37.5938C45.7405 33.6533 44.7353 29.3386 41.803 26.4025C40.1001 24.6975 37.9725 23.6371 35.5586 23.2904C34.7308 23.1715 33.3225 23.1825 32.4588 23.3147ZM34.546 28.8525C34.7398 29.0464 34.7453 29.0649 34.7453 29.5267V30.0016H35.48C36.5159 30.0016 36.7973 30.1527 36.7973 30.709C36.7973 30.9065 36.7603 30.9883 36.5979 31.1507L36.3986 31.35L35.059 31.3504C34.3051 31.3506 33.6225 31.3776 33.4979 31.4122C33.2274 31.4873 32.9091 31.7572 32.8106 31.9949C32.7044 32.2513 32.7616 32.7581 32.9222 32.9836C33.1413 33.2913 33.4319 33.4018 34.0248 33.403C35.3077 33.4056 36.1381 33.8611 36.5872 34.8089C36.7534 35.1595 36.7679 35.2397 36.7679 35.8057C36.7679 36.3518 36.7501 36.4594 36.6099 36.7586C36.3126 37.393 35.6735 37.9313 35.0238 38.0947L34.7453 38.1647V38.6324C34.7453 39.1909 34.6342 39.3989 34.279 39.5053C34.0866 39.563 34.02 39.5567 33.8277 39.4628C33.5293 39.3171 33.3971 39.0466 33.397 38.5816L33.3969 38.2209L32.6201 38.2C32.0022 38.1833 31.8122 38.1581 31.6917 38.0766C31.2828 37.8001 31.2828 37.2126 31.6917 36.9347C31.823 36.8454 32.0388 36.8278 33.3089 36.8024C34.7077 36.7744 34.7845 36.767 34.9903 36.6389C35.2396 36.4839 35.4495 36.0998 35.4475 35.8018C35.4449 35.3929 35.165 34.9932 34.7746 34.8411C34.7101 34.8159 34.3144 34.7779 33.8952 34.7566C33.2121 34.7219 33.0935 34.6994 32.7518 34.5388C31.8831 34.1307 31.3698 33.2962 31.3855 32.3174C31.4016 31.323 32.0931 30.4145 33.0483 30.133L33.3836 30.0342L33.4089 29.5636C33.4229 29.3047 33.4695 29.0372 33.5126 28.9691C33.6322 28.7799 33.871 28.6565 34.1209 28.6548C34.3006 28.6535 34.3873 28.6939 34.546 28.8525ZM16.8958 36.8466C16.6022 36.9174 16.4872 37.0907 15.7358 38.5949C14.9675 40.133 14.9667 40.135 15.0369 40.3696C15.0763 40.5012 15.1895 40.6736 15.2941 40.7616C15.4514 40.894 15.521 40.9143 15.7351 40.8902C15.875 40.8744 16.044 40.8122 16.1108 40.752C16.1776 40.6918 16.3643 40.3795 16.5257 40.0582L16.8192 39.4739L16.9507 39.8237C17.7256 41.8838 19.3488 43.6644 21.1614 44.4432C22.0092 44.8074 23.3554 45.0699 23.932 44.9834C24.3795 44.9163 24.6254 44.5253 24.4859 44.1026C24.3769 43.7723 24.1874 43.6814 23.4555 43.6082C22.3741 43.5001 21.6591 43.2521 20.8213 42.6945C19.6953 41.9449 18.6961 40.6249 18.1917 39.2207C18.1078 38.9869 18.0521 38.7957 18.068 38.7957C18.084 38.7957 18.4197 38.9575 18.8142 39.1553C19.5613 39.5298 19.8344 39.5923 20.1012 39.4495C20.291 39.3479 20.4403 39.0859 20.4403 38.8543C20.4403 38.4823 20.2829 38.3657 18.7487 37.5998C17.291 36.8721 17.1045 36.7963 16.8958 36.8466Z" fill="white"/>
</svg>
