<svg width="60" height="60" viewBox="0 0 60 60" fill="none" xmlns="http://www.w3.org/2000/svg">
<rect width="60" height="60" rx="10" fill="#032B63"/>
<path fill-rule="evenodd" clip-rule="evenodd" d="M29.0398 15.06C27.009 15.4636 25.4516 16.966 24.9984 18.9586C24.9472 19.1838 24.9052 19.5146 24.9052 19.6937V20.0194H25.9609H27.0165V19.7955C27.0165 19.2126 27.3608 18.4896 27.8897 17.9619C29.4824 16.3728 32.1399 17.0734 32.7866 19.253C32.8386 19.4282 32.8811 19.6722 32.8811 19.7955V20.0194H33.945H35.0089L34.9773 19.5355C34.9371 18.9195 34.6697 18.0824 34.3264 17.4976C34.0117 16.9616 33.4025 16.2924 32.9078 15.9394C32.457 15.6178 31.6906 15.2568 31.1804 15.126C30.6544 14.9911 29.5565 14.9573 29.0398 15.06ZM20.0394 21.1678C19.772 21.2838 19.6384 21.4096 19.505 21.671C19.4078 21.8614 19.3146 23.1294 18.6864 32.8138C18.2964 38.8241 17.9878 43.8783 18.0004 44.0454C18.0287 44.421 18.2481 44.7333 18.594 44.8904C18.827 44.9962 19.2198 45 29.9488 45C40.6778 45 41.0705 44.9962 41.3036 44.8904C41.6343 44.7403 41.8652 44.4232 41.8966 44.0764C41.9104 43.9246 41.6019 38.8689 41.2112 32.8415C40.4485 21.0777 40.5005 21.6529 40.172 21.3558C39.8458 21.0609 40.3572 21.0748 29.936 21.0773C21.4377 21.0793 20.2178 21.0905 20.0394 21.1678ZM27.2424 22.5577C27.736 22.8844 27.94 23.4541 27.8747 24.3235C27.8338 24.8682 27.6828 25.2232 27.3891 25.4652C26.7152 26.0207 25.6821 25.7771 25.3099 24.975C25.1543 24.6395 25.1535 23.4953 25.3087 23.1569C25.5528 22.6247 26.0108 22.3515 26.6125 22.3795C26.9174 22.3936 27.0519 22.4317 27.2424 22.5577ZM33.9773 22.5138C34.2743 22.6618 34.5135 22.9334 34.6372 23.2634C34.6713 23.3542 34.6985 23.7236 34.6978 24.0844C34.6964 24.8288 34.6172 25.0783 34.2811 25.3972C33.6216 26.0229 32.5693 25.8346 32.1681 25.019C32.0479 24.7747 32.0313 24.6573 32.0335 24.0659C32.0363 23.3382 32.0918 23.1308 32.3738 22.7965C32.7451 22.3562 33.4216 22.2369 33.9773 22.5138Z" fill="white"/>
</svg>
