<svg width="60" height="60" viewBox="0 0 60 60" fill="none" xmlns="http://www.w3.org/2000/svg">
<path d="M12.5 42.5C12.5 43.8261 13.0268 45.0979 13.9645 46.0355C14.9021 46.9732 16.1739 47.5 17.5 47.5C18.8261 47.5 20.0979 46.9732 21.0355 46.0355C21.9732 45.0979 22.5 43.8261 22.5 42.5M12.5 42.5C12.5 41.1739 13.0268 39.9021 13.9645 38.9645C14.9021 38.0268 16.1739 37.5 17.5 37.5C18.8261 37.5 20.0979 38.0268 21.0355 38.9645C21.9732 39.9021 22.5 41.1739 22.5 42.5M12.5 42.5H7.5V27.5M22.5 42.5H37.5M37.5 42.5C37.5 43.8261 38.0268 45.0979 38.9645 46.0355C39.9021 46.9732 41.1739 47.5 42.5 47.5C43.8261 47.5 45.0979 46.9732 46.0355 46.0355C46.9732 45.0979 47.5 43.8261 47.5 42.5M37.5 42.5C37.5 41.1739 38.0268 39.9021 38.9645 38.9645C39.9021 38.0268 41.1739 37.5 42.5 37.5C43.8261 37.5 45.0979 38.0268 46.0355 38.9645C46.9732 39.9021 47.5 41.1739 47.5 42.5M47.5 42.5H52.5V32.5C52.5 31.1739 51.9732 29.9021 51.0355 28.9645C50.0979 28.0268 48.8261 27.5 47.5 27.5H45M7.5 27.5L12.5 15H35L45 27.5M7.5 27.5H45M30 27.5V15" stroke="#3B3E44" stroke-width="2" stroke-linecap="round" stroke-linejoin="round"/>
</svg>
