<svg width="48" height="48" viewBox="0 0 48 48" fill="none" xmlns="http://www.w3.org/2000/svg">
<rect width="48" height="48" rx="16" fill="white"/>
<path d="M40.6708 22.9654L33.1783 16.7779C33.0101 16.639 32.7773 16.6098 32.5804 16.7026C32.3835 16.7954 32.2575 16.9939 32.2575 17.2116V20.6333C30.3191 20.7796 28.4629 21.3949 26.8125 22.4356V15.7429H30.1875C30.4052 15.7429 30.6038 15.6169 30.6966 15.4201C30.7894 15.2226 30.7601 14.9898 30.6212 14.8221L24.4337 7.32907C24.2199 7.07032 23.7801 7.07032 23.5663 7.32907L17.3788 14.8216C17.2399 14.9892 17.2106 15.2221 17.3034 15.4195C17.3962 15.6164 17.5948 15.7424 17.8125 15.7424H21.1875V28.3249C19.5917 27.2371 17.7416 26.4963 15.7425 26.233V22.7472C15.7425 22.5295 15.6165 22.3309 15.4196 22.2381C15.2227 22.1459 14.9899 22.1751 14.8217 22.3135L7.32919 28.5004C7.19981 28.6073 7.125 28.7665 7.125 28.9341C7.125 29.1018 7.19981 29.2609 7.32919 29.3678L14.8217 35.5553C14.9893 35.6937 15.2222 35.7224 15.4196 35.6307C15.6165 35.5379 15.7425 35.3393 15.7425 35.1216V31.9525C18.8886 32.7113 21.1875 35.5699 21.1875 38.8533V40.3124C21.1875 40.6229 21.4395 40.8749 21.75 40.8749H26.25C26.5605 40.8749 26.8125 40.6229 26.8125 40.3124V32.5606C26.8125 29.3757 29.1604 26.7246 32.2575 26.2848V29.5866C32.2575 29.8043 32.3835 30.0029 32.5804 30.0957C32.7784 30.1885 33.0101 30.1598 33.1783 30.0203L40.6708 23.8328C40.8002 23.7259 40.875 23.5668 40.875 23.3991C40.875 23.2315 40.8002 23.0723 40.6708 22.9654ZM25.6875 39.7499H22.3125V38.8533C22.3125 34.7948 19.2806 31.2966 15.2604 30.7156C15.0967 30.6925 14.9348 30.7398 14.8116 30.8472C14.6884 30.9541 14.6175 31.1093 14.6175 31.2724V33.928L8.57063 28.9347L14.6175 23.9414V26.737C14.6175 27.0284 14.8397 27.2714 15.1294 27.2973C21.0497 27.8299 25.6875 32.9059 25.6875 38.8538V39.7499ZM33.3825 28.3924V25.6666C33.3825 25.5124 33.3195 25.3651 33.2076 25.2593C33.0962 25.153 32.9494 25.1007 32.7919 25.1046C28.8077 25.3009 25.6869 28.5758 25.6869 32.5606V33.6951C24.9051 31.9609 23.7469 30.4242 22.3119 29.1946V15.1799C22.3119 14.8694 22.0599 14.6174 21.7494 14.6174H19.0061L23.9994 8.57051L28.9928 14.6174H26.2494C25.9389 14.6174 25.6869 14.8694 25.6869 15.1799V23.5111C25.6869 23.7248 25.8084 23.9206 26.0002 24.0151C26.1926 24.1101 26.421 24.0876 26.5909 23.9577C28.4122 22.5666 30.5723 21.796 32.8363 21.7285C33.1406 21.7195 33.3819 21.4703 33.3819 21.166V18.4047L39.4288 23.398L33.3819 28.3913L33.3825 28.3924Z" fill="black"/>
</svg>
