<svg width="60" height="60" viewBox="0 0 60 60" fill="none" xmlns="http://www.w3.org/2000/svg">
<rect width="60" height="60" rx="10" fill="#032B63"/>
<path fill-rule="evenodd" clip-rule="evenodd" d="M28.7786 15.0245C26.2567 15.2875 23.9121 16.0835 21.9704 17.3362L21.4673 17.6608L21.4294 17.1931C21.3691 16.4491 21.0212 16.0901 20.3605 16.0901C19.9364 16.0901 19.722 16.2 19.4592 16.5519C19.3267 16.7293 19.3209 16.8218 19.3209 18.7396C19.3209 20.6574 19.3267 20.7499 19.4592 20.9273C19.5352 21.0292 19.6808 21.1747 19.7827 21.2508C19.9601 21.3833 20.0525 21.3891 21.9704 21.3891C23.8882 21.3891 23.9806 21.3833 24.1581 21.2508C24.51 20.988 24.6199 20.7736 24.6199 20.3494C24.6199 20.0575 24.5844 19.9093 24.4816 19.7716C24.2155 19.4153 24.0157 19.3187 23.4623 19.2795L22.943 19.2427L23.4813 18.9266C28.4972 15.9806 34.8081 16.7221 38.963 20.7454C40.1381 21.8831 40.8935 22.9153 41.5943 24.3405C43.529 28.2751 43.3419 32.9302 41.0997 36.6489C40.3019 37.972 39.0437 39.3843 37.8769 40.2667C34.0095 43.191 28.8471 43.7368 24.5303 41.6777C23.1076 40.9991 22.1529 40.322 20.9895 39.1665C19.6807 37.8669 18.8598 36.6743 18.1941 35.1062C17.5672 33.6295 17.2531 32.2401 17.1511 30.4941C17.0952 29.5374 17.0478 29.4073 16.6455 29.107C16.3858 28.9131 15.7495 28.9131 15.4898 29.107C14.9961 29.4756 14.9275 29.8233 15.0576 31.2952C15.366 34.7832 16.7924 37.9156 19.2151 40.4248C21.5626 42.8561 24.3724 44.3058 27.8395 44.8745C28.8551 45.0411 31.1532 45.042 32.2104 44.8763C35.3782 44.3796 38.1645 43.0062 40.4161 40.8316C42.8159 38.514 44.2842 35.7123 44.8579 32.356C45.0313 31.3416 45.0664 28.9231 44.9207 28.0296C44.3251 24.3763 42.912 21.5936 40.4415 19.2091C38.2098 17.0551 35.5099 15.6974 32.4342 15.1824C31.6232 15.0467 29.4619 14.9533 28.7786 15.0245ZM28.7786 20.4251C28.0878 20.5114 27.0685 20.787 26.3576 21.0797C23.3357 22.324 21.1708 24.9798 20.5157 28.2463C20.3382 29.1312 20.3542 31.027 20.5463 31.8988C20.9854 33.8897 21.8203 35.4346 23.2069 36.821C24.593 38.2072 26.1351 39.0408 28.1291 39.482C29.0649 39.6891 30.9741 39.6891 31.9099 39.482C33.9037 39.0409 35.4423 38.2085 36.8309 36.8198C38.2373 35.4136 39.1322 33.7344 39.5221 31.7705C39.6888 30.931 39.6873 29.1949 39.5191 28.2979C38.8167 24.5509 36.0345 21.5728 32.3744 20.6503C31.2452 20.3657 29.9186 20.2826 28.7786 20.4251ZM30.6073 23.7483C30.7037 23.8203 30.8448 23.9626 30.9209 24.0644C31.0541 24.2427 31.0599 24.3446 31.0792 26.8439L31.0993 29.4382L32.5133 30.3764C33.2909 30.8924 33.9987 31.4083 34.0861 31.5228C34.4727 32.0297 34.2906 32.7822 33.7087 33.0815C33.1503 33.3686 33.0497 33.327 31.0394 31.9779C30.0575 31.3189 29.1923 30.6946 29.1169 30.5905C28.9847 30.4078 28.9791 30.2988 28.9598 27.505C28.9489 25.9121 28.9576 24.5116 28.9793 24.3927C29.0281 24.1252 29.3087 23.7829 29.5802 23.6597C29.8517 23.5366 30.3853 23.5826 30.6073 23.7483Z" fill="white"/>
</svg>
