<svg width="60" height="60" viewBox="0 0 60 60" fill="none" xmlns="http://www.w3.org/2000/svg">
<path d="M37.5 27.5V27.525M12.9325 20.945C11.836 20.1022 10.9939 18.9727 10.4992 17.6813C10.0045 16.3899 9.87647 14.9868 10.1293 13.6272C10.3822 12.2675 11.006 11.0043 11.9319 9.97705C12.8578 8.9498 14.0497 8.19856 15.3759 7.80635C16.702 7.41414 18.1108 7.39624 19.4465 7.75463C20.7822 8.11301 21.9928 8.83373 22.9445 9.83712C23.8962 10.8405 24.552 12.0875 24.8393 13.4403C25.1266 14.793 25.0343 16.1989 24.5725 17.5025M40 9.99998V19.5075C43.0941 21.2978 45.4497 24.1311 46.645 27.5H49.9975C50.6606 27.5 51.2965 27.7634 51.7653 28.2322C52.2341 28.7011 52.4975 29.3369 52.4975 30V35C52.4975 35.663 52.2341 36.2989 51.7653 36.7678C51.2965 37.2366 50.6606 37.5 49.9975 37.5H46.6425C45.8025 39.875 44.375 42 42.4975 43.6825V48.75C42.4975 49.7445 42.1024 50.6984 41.3992 51.4016C40.6959 52.1049 39.7421 52.5 38.7475 52.5C37.753 52.5 36.7991 52.1049 36.0959 51.4016C35.3926 50.6984 34.9975 49.7445 34.9975 48.75V47.2925C34.1714 47.4309 33.3352 47.5003 32.4975 47.5H22.4975C21.6599 47.5003 20.8237 47.4309 19.9975 47.2925V48.75C19.9975 49.7445 19.6024 50.6984 18.8992 51.4016C18.1959 52.1049 17.2421 52.5 16.2475 52.5C15.253 52.5 14.2991 52.1049 13.5959 51.4016C12.8926 50.6984 12.4975 49.7445 12.4975 48.75V43.6825C10.2324 41.6574 8.63573 38.9922 7.91874 36.0396C7.20176 33.0871 7.39831 29.9864 8.48239 27.148C9.56646 24.3097 11.4869 21.8674 13.9896 20.1446C16.4923 18.4217 19.4592 17.4995 22.4975 17.5H28.7475L39.9975 9.99998H40Z" stroke="#354052" stroke-width="2" stroke-linecap="round" stroke-linejoin="round"/>
</svg>
