<svg width="296" height="61" viewBox="0 0 296 61" fill="none" xmlns="http://www.w3.org/2000/svg">
<path d="M189.515 39.9473C189.515 32.6953 186.884 29.0983 181.622 29.0983C175.705 29.0983 172.769 33.3654 172.769 40.3563V47.1644C172.782 47.581 172.711 47.9959 172.56 48.3844C172.409 48.773 172.182 49.1274 171.892 49.4265C171.602 49.7257 171.255 49.9635 170.871 50.1259C170.487 50.2883 170.075 50.372 169.658 50.372C169.241 50.372 168.829 50.2883 168.445 50.1259C168.061 49.9635 167.714 49.7257 167.424 49.4265C167.134 49.1274 166.906 48.773 166.756 48.3844C166.605 47.9959 166.534 47.581 166.547 47.1644V39.0219C166.547 33.931 167.913 30.0295 170.695 27.2969C173.428 24.5731 177.077 23.1836 181.622 23.1836C185.669 23.1836 189.008 24.4686 191.691 27.0416C194.374 29.6147 195.685 33.4669 195.685 38.6622V56.856C195.698 57.2691 195.628 57.6805 195.478 58.0659C195.329 58.4512 195.104 58.8027 194.816 59.0993C194.528 59.396 194.184 59.6319 193.803 59.793C193.423 59.954 193.014 60.037 192.6 60.037C192.187 60.037 191.778 59.954 191.397 59.793C191.017 59.6319 190.672 59.396 190.385 59.0993C190.097 58.8027 189.872 58.4512 189.722 58.0659C189.573 57.6805 189.503 57.2691 189.515 56.856V39.9473Z" fill="#FFFFFF"/>
<path d="M166.477 39.9472C166.477 32.6952 163.849 29.0983 158.587 29.0983C152.67 29.0983 149.734 33.3653 149.734 40.3562V56.8559C149.747 57.2725 149.676 57.6874 149.525 58.0759C149.374 58.4645 149.147 58.8189 148.857 59.118C148.567 59.4172 148.22 59.655 147.836 59.8174C147.452 59.9798 147.04 60.0635 146.623 60.0635C146.206 60.0635 145.794 59.9798 145.41 59.8174C145.026 59.655 144.679 59.4172 144.389 59.118C144.098 58.8189 143.871 58.4645 143.721 58.0759C143.57 57.6874 143.499 57.2725 143.512 56.8559V39.0161C143.512 33.9252 144.878 30.0236 147.66 27.2911C150.392 24.5672 154.042 23.1777 158.587 23.1777C162.634 23.1777 165.973 24.4628 168.653 27.0358C171.333 29.6088 172.65 33.461 172.65 38.6564V47.1586C172.65 47.9772 172.325 48.7622 171.746 49.341C171.167 49.9199 170.382 50.245 169.564 50.245C168.745 50.245 167.96 49.9199 167.381 49.341C166.802 48.7622 166.477 47.9772 166.477 47.1586V39.9472Z" fill="#FFFFFF"/>
<path d="M154.372 21.3469C148.571 21.3469 143.872 16.5606 143.872 10.6749C143.872 4.78921 148.582 0 154.372 0C160.162 0 164.873 4.78921 164.873 10.6749C164.873 16.5606 160.162 21.3469 154.372 21.3469ZM154.372 5.33746C153.313 5.32019 152.273 5.61848 151.384 6.19437C150.495 6.77026 149.797 7.5977 149.38 8.57134C148.962 9.54499 148.844 10.6208 149.04 11.6618C149.236 12.7029 149.738 13.662 150.48 14.4172C151.223 15.1724 152.174 15.6895 153.212 15.9026C154.249 16.1157 155.327 16.0152 156.307 15.6139C157.288 15.2126 158.127 14.5286 158.717 13.6491C159.307 12.7696 159.623 11.7342 159.623 10.6749C159.633 9.27132 159.086 7.92106 158.101 6.92042C157.117 5.91978 155.776 5.35048 154.372 5.33746Z" fill="#FFFFFF"/>
<path d="M186.008 21.3469C180.207 21.3469 175.507 16.5606 175.507 10.6749C175.507 4.78921 180.218 0 186.008 0C191.798 0 196.509 4.78921 196.509 10.6749C196.509 16.5606 191.798 21.3469 186.008 21.3469ZM186.008 5.33746C184.949 5.32019 183.909 5.61848 183.02 6.19437C182.13 6.77026 181.433 7.5977 181.015 8.57134C180.598 9.54499 180.48 10.6208 180.676 11.6618C180.872 12.7029 181.373 13.662 182.116 14.4172C182.859 15.1724 183.81 15.6895 184.847 15.9026C185.885 16.1157 186.963 16.0152 187.943 15.6139C188.924 15.2126 189.762 14.5286 190.353 13.6491C190.943 12.7696 191.259 11.7342 191.259 10.6749C191.269 9.27132 190.722 7.92106 189.737 6.92042C188.753 5.91978 187.412 5.35048 186.008 5.33746Z" fill="#FFFFFF"/>
<path d="M46.0046 39.9473C46.0046 32.6953 43.3736 29.0983 38.1115 29.0983C32.1939 29.0983 29.2583 33.3654 29.2583 40.3563V47.1644C29.271 47.581 29.2 47.9959 29.0494 48.3844C28.8987 48.773 28.6716 49.1274 28.3815 49.4265C28.0913 49.7257 27.744 49.9635 27.3603 50.1259C26.9765 50.2883 26.564 50.372 26.1472 50.372C25.7305 50.372 25.318 50.2883 24.9342 50.1259C24.5504 49.9635 24.2031 49.7257 23.913 49.4265C23.6228 49.1274 23.3957 48.773 23.2451 48.3844C23.0945 47.9959 23.0234 47.581 23.0361 47.1644V39.0219C23.0361 33.931 24.4024 30.0295 27.1843 27.2969C29.9168 24.5731 33.566 23.1836 38.1115 23.1836C42.1727 23.1836 45.497 24.4686 48.1802 27.0416C50.8634 29.6147 52.1746 33.4669 52.1746 38.6622V56.856C52.1873 57.2691 52.1168 57.6805 51.9675 58.0659C51.8182 58.4512 51.593 58.8027 51.3052 59.0993C51.0175 59.396 50.6731 59.6319 50.2925 59.793C49.9119 59.954 49.5029 60.037 49.0896 60.037C48.6763 60.037 48.2672 59.954 47.8866 59.793C47.506 59.6319 47.1617 59.396 46.8739 59.0993C46.5862 58.8027 46.361 58.4512 46.2117 58.0659C46.0624 57.6805 45.9919 57.2691 46.0046 56.856V39.9473Z" fill="#FFFFFF"/>
<path d="M22.9663 39.9473C22.9663 32.6953 20.3382 29.0983 15.0762 29.0983C9.15564 29.0983 6.22294 33.3654 6.22294 40.3563V56.856C6.22909 57.2655 6.15384 57.6721 6.00155 58.0523C5.84927 58.4324 5.62299 58.7785 5.33585 59.0705C5.04871 59.3625 4.70643 59.5946 4.32888 59.7532C3.95133 59.9119 3.54602 59.9939 3.1365 59.9947C2.72207 60.0034 2.31016 59.9281 1.92559 59.7734C1.54101 59.6187 1.19172 59.3878 0.898746 59.0946C0.605772 58.8013 0.375177 58.4518 0.220847 58.0671C0.0665173 57.6824 -0.00835486 57.2704 0.000739466 56.856V39.0161C0.000739466 33.9397 1.36701 30.0237 4.14887 27.2969C6.88142 24.5731 10.5306 23.1836 15.0762 23.1836C19.1373 23.1836 22.4616 24.4686 25.1419 27.0416C27.8222 29.6147 29.1392 33.4669 29.1392 38.6622V47.1644C29.1392 47.983 28.814 48.7681 28.2352 49.3469C27.6564 49.9257 26.8713 50.2509 26.0528 50.2509C25.2342 50.2509 24.4491 49.9257 23.8703 49.3469C23.2915 48.7681 22.9663 47.983 22.9663 47.1644V39.9473Z" fill="#FFFFFF"/>
<path d="M10.8612 21.3469C5.05964 21.3469 0.360352 16.5606 0.360352 10.6749C0.360352 4.78921 5.07124 0 10.8612 0C16.6512 0 21.3621 4.78921 21.3621 10.6749C21.3621 16.5606 16.6512 21.3469 10.8612 21.3469ZM10.8612 5.33746C9.80204 5.32019 8.76167 5.61848 7.87256 6.19437C6.98344 6.77026 6.2858 7.5977 5.86845 8.57134C5.45109 9.54499 5.33289 10.6208 5.52891 11.6618C5.72492 12.7029 6.22628 13.662 6.96915 14.4172C7.71203 15.1724 8.66282 15.6895 9.70049 15.9026C10.7382 16.1157 11.8158 16.0152 12.7961 15.6139C13.7765 15.2126 14.6153 14.5286 15.2057 13.6491C15.7962 12.7696 16.1115 11.7342 16.1117 10.6749C16.1217 9.27132 15.5745 7.92106 14.5902 6.92042C13.6059 5.91978 12.2648 5.35048 10.8612 5.33746Z" fill="#FFFFFF"/>
<path d="M42.4974 21.3469C36.6958 21.3469 31.9937 16.5606 31.9937 10.6749C31.9937 4.78921 36.7045 0 42.4974 0C48.2903 0 52.9983 4.78921 52.9983 10.6749C52.9983 16.5606 48.2874 21.3469 42.4974 21.3469ZM42.4974 5.33746C41.4382 5.32019 40.3979 5.61848 39.5088 6.19437C38.6196 6.77026 37.922 7.5977 37.5046 8.57134C37.0873 9.54499 36.9691 10.6208 37.1651 11.6618C37.3611 12.7029 37.8625 13.662 38.6054 14.4172C39.3482 15.1724 40.299 15.6895 41.3367 15.9026C42.3744 16.1157 43.452 16.0152 44.4323 15.6139C45.4127 15.2126 46.2515 14.5286 46.8419 13.6491C47.4324 12.7696 47.7477 11.7342 47.7479 10.6749C47.7579 9.27132 47.2107 7.92106 46.2264 6.92042C45.2421 5.91978 43.901 5.35048 42.4974 5.33746Z" fill="#FFFFFF"/>
<path d="M56.4096 46.4127C56.3979 44.5934 56.7613 42.7913 57.4771 41.1187C58.1637 39.5061 59.1556 38.0414 60.3982 36.8052C61.6463 35.5743 63.1157 34.5901 64.7291 33.9044C66.3934 33.2037 68.181 32.8428 69.9868 32.8428C71.7926 32.8428 73.5802 33.2037 75.2445 33.9044C76.8404 34.5803 78.2949 35.5506 79.5318 36.7646C80.7637 37.9832 81.7486 39.4281 82.4326 41.0201C83.1507 42.6737 83.5333 44.4534 83.5581 46.256V57.4357C83.5629 57.7253 83.51 58.013 83.4024 58.2819C83.2948 58.5509 83.1348 58.7957 82.9316 59.0021C82.7312 59.2153 82.4881 59.3838 82.2182 59.4968C81.9483 59.6097 81.6576 59.6646 81.3651 59.6577C81.083 59.6658 80.8025 59.6115 80.5438 59.4986C80.285 59.3858 80.0544 59.2173 79.8683 59.005C79.4837 58.5797 79.2762 58.0235 79.2882 57.4502L79.2592 56.0346C78.0384 57.2264 76.6215 58.1988 75.0704 58.9093C73.479 59.6383 71.7474 60.0106 69.9969 60C68.1854 60.0096 66.3912 59.6463 64.7262 58.9325C61.4657 57.5488 58.867 54.9573 57.4742 51.7008C56.7575 50.0307 56.395 48.23 56.4096 46.4127ZM60.6825 46.4127C60.6753 47.649 60.9232 48.8734 61.4106 50.0096C61.8803 51.11 62.5535 52.1119 63.3947 52.9627C64.2407 53.8163 65.2434 54.4988 66.3477 54.9729C67.4951 55.4718 68.7342 55.7247 69.9853 55.7155C71.2469 55.7265 72.4968 55.4736 73.6548 54.9729C75.8815 54.0227 77.6503 52.2424 78.5862 50.0096C79.0638 48.8709 79.3065 47.6475 79.2998 46.4127C79.3073 45.1646 79.0647 43.9278 78.5862 42.7751C78.1287 41.6716 77.4596 40.6684 76.6165 39.8221C75.7688 38.9771 74.7662 38.3034 73.6635 37.8379C72.4991 37.3519 71.247 37.111 69.9853 37.1301C68.7356 37.1203 67.4973 37.3682 66.3477 37.8582C64.1227 38.7944 62.3526 40.5645 61.4164 42.7896C60.9276 43.9347 60.6779 45.1676 60.6825 46.4127Z" fill="#FFFFFF"/>
<path d="M96.0169 32.8431H99.3529C99.9199 32.8431 100.464 33.0684 100.865 33.4693C101.266 33.8702 101.491 34.414 101.491 34.981C101.491 35.548 101.266 36.0918 100.865 36.4927C100.464 36.8936 99.9199 37.1189 99.3529 37.1189H96.0169V57.5492C96.0222 57.8281 95.9692 58.105 95.8613 58.3622C95.7534 58.6195 95.593 58.8514 95.3904 59.0431C95.1934 59.2419 94.9582 59.3989 94.699 59.5046C94.4398 59.6103 94.1619 59.6625 93.882 59.6581C93.5971 59.6645 93.3138 59.6133 93.0491 59.5076C92.7844 59.402 92.5438 59.244 92.3416 59.0431C92.139 58.8514 91.9786 58.6195 91.8707 58.3622C91.7628 58.105 91.7098 57.8281 91.7151 57.5492V37.1305H88.9796C88.6941 37.1367 88.4104 37.0843 88.146 36.9765C87.8815 36.8688 87.642 36.7079 87.4422 36.5039C87.0408 36.101 86.8154 35.5555 86.8154 34.9868C86.8154 34.4181 87.0408 33.8726 87.4422 33.4697C87.6438 33.2689 87.8839 33.1109 88.1481 33.0052C88.4123 32.8996 88.6951 32.8484 88.9796 32.8547H91.7151V25.3127C91.7072 25.0313 91.759 24.7514 91.867 24.4914C91.975 24.2314 92.1367 23.9973 92.3416 23.8042C92.5458 23.607 92.7871 23.4524 93.0515 23.3493C93.3159 23.2462 93.5982 23.1968 93.882 23.2038C94.1607 23.1988 94.4376 23.2493 94.6965 23.3524C94.9555 23.4555 95.1914 23.6091 95.3904 23.8042C95.5953 23.9973 95.7571 24.2314 95.865 24.4914C95.973 24.7514 96.0248 25.0313 96.0169 25.3127V32.8431Z" fill="#FFFFFF"/>
<path d="M199.7 46.4128C199.688 44.5932 200.053 42.7908 200.771 41.1188C201.456 39.5056 202.448 38.0407 203.692 36.8054C204.939 35.5738 206.409 34.5895 208.023 33.9046C209.686 33.2038 211.474 32.8428 213.279 32.8428C215.084 32.8428 216.871 33.2038 218.535 33.9046C220.132 34.5811 221.587 35.5513 222.825 36.7648C224.057 37.9833 225.042 39.4282 225.726 41.0202C226.439 42.673 226.819 44.4504 226.843 46.2503V57.4358C226.848 57.7254 226.795 58.0131 226.687 58.282C226.58 58.551 226.42 58.7958 226.216 59.0022C226.016 59.2154 225.773 59.3839 225.503 59.4969C225.233 59.6099 224.942 59.6647 224.65 59.6578C224.368 59.6657 224.087 59.6113 223.829 59.4985C223.57 59.3857 223.339 59.2172 223.153 59.0051C222.769 58.5798 222.561 58.0236 222.573 57.4503L222.544 56.0347C221.324 57.2273 219.907 58.1999 218.355 58.9094C216.765 59.6388 215.034 60.0111 213.285 60.0001C211.473 60.01 209.679 59.6466 208.014 58.9326C204.754 57.5489 202.155 54.9575 200.762 51.7009C200.045 50.031 199.683 48.2301 199.7 46.4128ZM203.976 46.4128C203.967 47.6493 204.215 48.8741 204.704 50.0098C205.174 51.1094 205.846 52.1111 206.685 52.9628C207.532 53.8158 208.534 54.4982 209.638 54.973C210.794 55.4631 212.037 55.7157 213.292 55.7157C214.547 55.7157 215.79 55.4631 216.945 54.973C219.172 54.0228 220.941 52.2425 221.877 50.0098C222.356 48.8715 222.599 47.6477 222.59 46.4128C222.6 45.1646 222.357 43.9274 221.877 42.7752C221.42 41.6711 220.751 40.6677 219.907 39.8222C219.06 38.9766 218.057 38.3028 216.954 37.838C215.796 37.3574 214.555 37.1101 213.301 37.1101C212.047 37.1101 210.805 37.3574 209.647 37.838C207.421 38.7727 205.65 40.5433 204.716 42.7694C204.221 43.92 203.969 45.1603 203.976 46.4128Z" fill="#FFFFFF"/>
<path d="M239.316 32.8429H242.649C243.216 32.8429 243.76 33.0682 244.161 33.4691C244.562 33.87 244.787 34.4138 244.787 34.9808C244.787 35.5478 244.562 36.0916 244.161 36.4925C243.76 36.8935 243.216 37.1187 242.649 37.1187H239.316V57.549C239.322 57.8279 239.268 58.1048 239.161 58.3621C239.053 58.6193 238.892 58.8512 238.69 59.0429C238.492 59.2417 238.256 59.3986 237.997 59.5043C237.737 59.61 237.459 59.6622 237.178 59.6579C236.894 59.6642 236.611 59.613 236.347 59.5073C236.083 59.4017 235.843 59.2437 235.641 59.0429C235.438 58.8512 235.278 58.6193 235.17 58.3621C235.062 58.1048 235.009 57.8279 235.014 57.549V37.1303H232.279C231.993 37.1366 231.709 37.0842 231.444 36.9764C231.179 36.8687 230.939 36.7078 230.739 36.5037C230.337 36.1009 230.112 35.5553 230.112 34.9866C230.112 34.4179 230.337 33.8724 230.739 33.4695C230.941 33.2686 231.181 33.1106 231.446 33.0049C231.711 32.8993 231.994 32.8481 232.279 32.8545H235.014V25.3125C235.003 25.0288 235.052 24.746 235.159 24.4829C235.265 24.2198 235.427 23.9824 235.632 23.7867C235.836 23.5895 236.077 23.4349 236.341 23.3318C236.605 23.2288 236.886 23.1792 237.17 23.1862C237.449 23.1811 237.726 23.2316 237.986 23.3347C238.245 23.4377 238.481 23.5914 238.681 23.7867C238.886 23.9797 239.048 24.2139 239.156 24.4738C239.264 24.7338 239.315 25.0137 239.308 25.2951L239.316 32.8429Z" fill="#FFFFFF"/>
<path d="M250.989 48.3448C251.324 50.4353 252.39 52.3391 253.997 53.7171C254.792 54.3951 255.698 54.93 256.675 55.298C258.928 56.12 261.411 56.0484 263.614 55.0978C264.659 54.6273 265.584 53.9261 266.32 53.047C266.635 52.7723 267.019 52.5896 267.431 52.519C267.775 52.4709 268.124 52.4956 268.458 52.5916C268.878 52.7633 269.228 53.0694 269.456 53.4618C269.744 53.8733 269.884 54.3702 269.853 54.8716C269.835 55.1565 269.758 55.4345 269.625 55.6875C269.493 55.9404 269.309 56.1625 269.084 56.3394C268.575 56.8665 268.017 57.3435 267.416 57.7637C266.771 58.2171 266.079 58.5994 265.351 58.9037C264.543 59.2426 263.704 59.501 262.845 59.6753C261.859 59.8734 260.856 59.9706 259.851 59.9654C258.031 59.9778 256.228 59.6185 254.551 58.9095C251.285 57.5465 248.682 54.9591 247.299 51.701C246.595 50.023 246.232 48.2213 246.232 46.4013C246.232 44.5813 246.595 42.7796 247.299 41.1015C247.985 39.4876 248.977 38.0218 250.221 36.7851C251.468 35.5531 252.937 34.5688 254.551 33.8843C256.226 33.1846 258.023 32.8242 259.838 32.8242C261.653 32.8242 263.45 33.1846 265.125 33.8843C266.737 34.5638 268.203 35.5489 269.441 36.7851C270.673 38.0202 271.664 39.4742 272.362 41.0725C273.086 42.7267 273.464 44.5115 273.473 46.3171C273.484 46.5909 273.438 46.8638 273.338 47.1189C273.238 47.374 273.087 47.6057 272.893 47.7995C272.691 47.9934 272.452 48.1448 272.191 48.2444C271.929 48.3441 271.65 48.3901 271.37 48.3796L250.989 48.3448ZM269.084 44.7536C268.935 43.6662 268.579 42.6174 268.034 41.6643C267.507 40.7218 266.82 39.8778 266.004 39.1696C264.311 37.7086 262.148 36.9091 259.912 36.9186C258.777 36.91 257.651 37.1177 256.594 37.5306C255.587 37.9224 254.656 38.4868 253.844 39.1986C252.218 40.636 251.157 42.6052 250.85 44.7536H269.084Z" fill="#FFFFFF"/>
<path d="M281.836 46.6766C280.872 46.2801 279.962 45.7636 279.127 45.1392C278.364 44.5679 277.716 43.8572 277.218 43.0448C276.717 42.181 276.466 41.1946 276.493 40.1962C276.474 39.0975 276.738 38.0123 277.262 37.046C277.769 36.1388 278.46 35.3481 279.292 34.7253C280.166 34.0749 281.148 33.5839 282.193 33.2749C283.274 32.9708 284.395 32.8319 285.517 32.863C286.34 32.8347 287.164 32.8862 287.977 33.0168C288.776 33.1716 289.554 33.4158 290.298 33.7449C291.004 34.0574 291.661 34.4696 292.25 34.969C292.816 35.4456 293.285 36.0267 293.631 36.6805C293.828 37.046 293.908 37.4632 293.86 37.8756C293.808 38.2281 293.649 38.5562 293.405 38.8154C293.135 39.1013 292.788 39.3028 292.407 39.3956C292.017 39.498 291.604 39.4525 291.246 39.268C290.523 38.5095 289.704 37.8484 288.81 37.3012C287.898 36.7792 286.86 36.5192 285.81 36.5499C285.193 36.55 284.576 36.6122 283.971 36.7356C283.408 36.8467 282.869 37.0537 282.376 37.3476C281.922 37.6234 281.537 37.9995 281.25 38.447C280.955 38.9311 280.807 39.4904 280.824 40.057C280.807 40.6034 280.95 41.1429 281.236 41.6089C281.532 42.0561 281.921 42.4349 282.376 42.7199C282.905 43.0556 283.469 43.3328 284.058 43.5466C284.694 43.7845 285.384 44.0166 286.124 44.2457C287.323 44.6325 288.458 45.0309 289.529 45.4408C290.537 45.8224 291.49 46.3354 292.363 46.9667C293.155 47.5354 293.82 48.2624 294.315 49.1017C294.826 50.0296 295.077 51.0775 295.044 52.1359C295.054 53.2132 294.81 54.2778 294.33 55.2426C293.851 56.1993 293.176 57.0444 292.349 57.7228C291.464 58.4478 290.456 59.007 289.373 59.3734C288.19 59.7805 286.947 59.9836 285.697 59.9738C284.739 59.9707 283.784 59.8736 282.846 59.6837C281.922 59.5005 281.023 59.2084 280.168 58.8135C279.341 58.4297 278.569 57.936 277.874 57.3457C277.184 56.7608 276.618 56.0438 276.209 55.2368C276.049 54.9912 275.942 54.7149 275.895 54.4258C275.848 54.1366 275.862 53.8408 275.936 53.5573C276.077 53.0903 276.387 52.6929 276.806 52.4434C277.252 52.1929 277.772 52.1077 278.274 52.2026C278.89 52.3212 279.436 52.6736 279.797 53.186C280.362 54.1528 281.186 54.9425 282.176 55.466C283.278 55.9734 284.484 56.2167 285.697 56.1767C286.348 56.1786 286.995 56.0878 287.62 55.9069C288.208 55.7391 288.765 55.4797 289.271 55.1382C289.738 54.8196 290.134 54.4065 290.431 53.9257C290.73 53.4374 290.883 52.8737 290.872 52.3012C290.89 51.6961 290.711 51.1016 290.362 50.6072C289.993 50.1189 289.533 49.707 289.007 49.3946C288.409 49.0365 287.774 48.7447 287.113 48.5244C286.408 48.2865 285.697 48.0632 284.975 47.8543C283.9 47.4985 282.853 47.1059 281.836 46.6766Z" fill="#FFFFFF"/>
<path d="M107.817 51.3439L107.852 51.3787C107.851 52.1257 107.996 52.8658 108.278 53.5572C108.555 54.2425 108.954 54.8717 109.456 55.4137C109.964 55.9581 110.569 56.4028 111.24 56.7248C111.936 57.0594 112.696 57.2366 113.468 57.2441C114.181 57.2587 114.892 57.1508 115.568 56.925C116.265 56.6809 116.906 56.3002 117.454 55.8053C117.599 55.6951 117.744 55.5877 117.906 55.4862C118.061 55.3829 118.233 55.3082 118.414 55.2657C118.605 55.2234 118.803 55.2234 118.994 55.2657C119.23 55.3291 119.446 55.4519 119.621 55.6225C119.765 55.7433 119.879 55.8956 119.954 56.0677C120.03 56.2398 120.064 56.4269 120.056 56.6146C120.035 57.0242 119.86 57.4108 119.565 57.6966C118.826 58.4596 117.927 59.0483 116.932 59.4197C115.904 59.8091 114.813 60.0057 113.715 59.9998C112.561 60.0077 111.418 59.7807 110.355 59.3327C108.289 58.471 106.639 56.8386 105.755 54.7813C105.297 53.721 105.066 52.5769 105.076 51.4222L105.111 51.3497C105.106 51.3454 105.101 51.34 105.098 51.3341C105.096 51.3281 105.094 51.3215 105.093 51.3149L105.076 51.2946C105.068 50.1316 105.299 48.9794 105.755 47.9093C106.19 46.8786 106.82 45.9418 107.611 45.1507C108.401 44.365 109.332 43.7352 110.355 43.2942C111.414 42.8354 112.558 42.6023 113.712 42.6096C114.813 42.6021 115.907 42.7988 116.937 43.1897C117.928 43.5628 118.825 44.1502 119.563 44.9099C119.858 45.1995 120.033 45.5902 120.053 46.0035C120.062 46.1926 120.028 46.3812 119.952 46.5548C119.877 46.7284 119.762 46.8822 119.618 47.0043C119.443 47.1749 119.227 47.2977 118.991 47.3611C118.8 47.4034 118.602 47.4034 118.411 47.3611C118.229 47.3182 118.056 47.2404 117.903 47.1319C117.747 47.0246 117.596 46.9144 117.451 46.8041C116.903 46.3155 116.266 45.9381 115.574 45.6931C114.895 45.4621 114.182 45.3512 113.465 45.3653C112.703 45.3737 111.952 45.5479 111.263 45.8759C110.592 46.1969 109.986 46.6417 109.479 47.187C108.972 47.7359 108.567 48.3717 108.284 49.0638C107.995 49.7617 107.847 50.5101 107.849 51.2655C107.85 51.2801 107.847 51.2947 107.842 51.3082C107.836 51.3217 107.828 51.3339 107.817 51.3439Z" fill="#FFFFFF"/>
<path d="M125.968 47.0854C126.571 46.3574 127.308 45.7527 128.14 45.3043C128.941 44.8683 129.839 44.6408 130.751 44.6429C131.633 44.6297 132.506 44.8141 133.307 45.1825C134.065 45.5359 134.734 46.0554 135.265 46.7025C135.831 47.4017 136.259 48.202 136.527 49.0609C136.835 50.0492 136.986 51.08 136.973 52.1154V58.7872C136.978 58.9491 136.949 59.1102 136.887 59.2601C136.826 59.41 136.733 59.5453 136.617 59.6575C136.382 59.8806 136.07 60.0034 135.746 59.9998C135.588 60.0028 135.432 59.974 135.285 59.9152C135.139 59.8564 135.005 59.7688 134.893 59.6575C134.778 59.5448 134.687 59.4093 134.626 59.2594C134.566 59.1095 134.537 58.9487 134.542 58.7872V52.0864C134.543 51.3763 134.446 50.6695 134.252 49.9862C134.089 49.4126 133.812 48.8778 133.437 48.414C133.095 47.992 132.66 47.6545 132.167 47.4277C131.636 47.1929 131.061 47.0761 130.481 47.0854C129.881 47.0792 129.287 47.205 128.741 47.4538C128.209 47.6933 127.729 48.0365 127.331 48.4633C126.921 48.9066 126.593 49.4193 126.362 49.9775C126.115 50.5741 125.98 51.2115 125.965 51.8572V58.7611C125.968 58.9224 125.939 59.0826 125.879 59.2322C125.818 59.3818 125.728 59.5176 125.614 59.6314C125.502 59.7488 125.367 59.8415 125.217 59.9035C125.067 59.9654 124.906 59.9952 124.744 59.991C124.582 59.9937 124.421 59.9631 124.271 59.9012C124.122 59.8394 123.986 59.7475 123.873 59.6314C123.756 59.5192 123.664 59.3839 123.603 59.234C123.541 59.0841 123.512 58.923 123.517 58.7611V40.3933C123.514 40.2287 123.545 40.0653 123.608 39.9131C123.671 39.761 123.764 39.6233 123.882 39.5085C123.994 39.3905 124.129 39.2969 124.279 39.2335C124.428 39.1701 124.59 39.1383 124.752 39.1401C124.915 39.1354 125.077 39.1658 125.228 39.2294C125.378 39.293 125.513 39.3882 125.623 39.5085C125.736 39.6257 125.826 39.7641 125.886 39.9159C125.946 40.0678 125.976 40.23 125.974 40.3933L125.968 47.0854Z" fill="#FFFFFF"/>
<path d="M107.516 33.0285C107.51 34.3726 108.038 35.664 108.983 36.6197C109.464 37.0983 110.036 37.4766 110.664 37.7325C111.293 37.9885 111.966 38.117 112.644 38.1107C113.331 38.1189 114.013 37.9856 114.646 37.7191C115.231 37.4677 115.759 37.0996 116.198 36.6371C116.632 36.1687 116.975 35.6238 117.21 35.0301C117.455 34.4081 117.585 33.7465 117.593 33.0778V24.329C117.589 24.1669 117.619 24.0057 117.681 23.8558C117.743 23.7059 117.835 23.5707 117.953 23.4588C118.188 23.2373 118.499 23.114 118.823 23.114C119.146 23.114 119.458 23.2373 119.693 23.4588C119.809 23.5714 119.9 23.707 119.961 23.8569C120.021 24.0067 120.049 24.1675 120.044 24.329V33.0691C120.051 34.0625 119.865 35.0476 119.496 35.9699C119.144 36.8506 118.626 37.6553 117.97 38.3399C117.304 39.025 116.507 39.5687 115.626 39.9382C114.682 40.3324 113.667 40.5298 112.644 40.5184C111.614 40.5286 110.592 40.3313 109.639 39.9382C108.741 39.5694 107.924 39.0262 107.237 38.3399C106.56 37.6591 106.019 36.8545 105.645 35.9699C105.254 35.053 105.057 34.0656 105.064 33.0691V24.3668C105.056 24.2008 105.082 24.0349 105.14 23.8792C105.198 23.7235 105.287 23.5811 105.402 23.4608C105.516 23.3405 105.654 23.2447 105.807 23.1793C105.959 23.1138 106.124 23.0801 106.29 23.0801C106.456 23.0801 106.621 23.1138 106.773 23.1793C106.926 23.2447 107.064 23.3405 107.179 23.4608C107.293 23.5811 107.382 23.7235 107.44 23.8792C107.498 24.0349 107.524 24.2008 107.516 24.3668V33.0285Z" fill="#FFFFFF"/>
<path d="M125.991 25.2775C126.698 24.6056 127.525 24.0706 128.427 23.6995C130.353 22.9197 132.509 22.9343 134.423 23.7401C135.354 24.1362 136.201 24.7062 136.918 25.4196C137.632 26.1343 138.202 26.9805 138.595 27.9114C139.002 28.8781 139.213 29.9167 139.213 30.966C139.213 32.0152 139.002 33.0538 138.595 34.0205C137.8 35.8988 136.309 37.3967 134.435 38.2005C133.471 38.6154 132.432 38.8258 131.383 38.8184C130.373 38.8205 129.373 38.6233 128.439 38.2383C127.535 37.8715 126.709 37.3381 126.002 36.666V42.952C126.006 43.1142 125.977 43.2754 125.915 43.4253C125.853 43.5752 125.76 43.7104 125.643 43.8223C125.409 44.0477 125.097 44.1737 124.772 44.1737C124.448 44.1737 124.136 44.0477 123.902 43.8223C123.785 43.7104 123.692 43.5752 123.63 43.4253C123.568 43.2754 123.538 43.1142 123.542 42.952V24.3406C123.538 24.1784 123.568 24.0172 123.63 23.8673C123.692 23.7174 123.785 23.5822 123.902 23.4703C124.138 23.2501 124.449 23.1276 124.772 23.1276C125.095 23.1276 125.406 23.2501 125.643 23.4703C125.76 23.5822 125.853 23.7174 125.915 23.8673C125.977 24.0172 126.006 24.1784 126.002 24.3406L125.991 25.2775ZM126.429 33.0429C126.973 34.328 127.993 35.3535 129.274 35.906C129.94 36.1874 130.656 36.3324 131.379 36.3324C132.102 36.3324 132.817 36.1874 133.483 35.906C134.765 35.3556 135.783 34.3292 136.323 33.0429C136.598 32.3871 136.737 31.6827 136.732 30.9718C136.743 30.2533 136.608 29.5401 136.338 28.8745C136.067 28.2358 135.673 27.6571 135.177 27.1717C134.677 26.671 134.082 26.2748 133.427 26.0064C132.773 25.7379 132.071 25.6026 131.363 25.6082C130.643 25.6032 129.929 25.7453 129.266 26.0259C128.628 26.2991 128.05 26.6931 127.563 27.1862C127.075 27.6742 126.687 28.2525 126.42 28.889C126.137 29.5516 125.993 30.2656 125.999 30.9863C125.999 31.6941 126.145 32.3943 126.429 33.0429Z" fill="#FFFFFF"/>
<path d="M106.286 20.2589C106.96 20.2589 107.507 19.7121 107.507 19.0376C107.507 18.3632 106.96 17.8164 106.286 17.8164C105.611 17.8164 105.064 18.3632 105.064 19.0376C105.064 19.7121 105.611 20.2589 106.286 20.2589Z" fill="#FFFFFF"/>
<path d="M118.814 20.2589C119.488 20.2589 120.035 19.7121 120.035 19.0376C120.035 18.3632 119.488 17.8164 118.814 17.8164C118.14 17.8164 117.593 18.3632 117.593 19.0376C117.593 19.7121 118.14 20.2589 118.814 20.2589Z" fill="#FFFFFF"/>
</svg>
