<svg width="60" height="60" viewBox="0 0 60 60" fill="none" xmlns="http://www.w3.org/2000/svg">
<path d="M27.5 10H32.5M30 42.5V42.525M15 12.5C15 11.1739 15.5268 9.90215 16.4645 8.96447C17.4021 8.02678 18.6739 7.5 20 7.5H40C41.3261 7.5 42.5979 8.02678 43.5355 8.96447C44.4732 9.90215 45 11.1739 45 12.5V47.5C45 48.8261 44.4732 50.0979 43.5355 51.0355C42.5979 51.9732 41.3261 52.5 40 52.5H20C18.6739 52.5 17.4021 51.9732 16.4645 51.0355C15.5268 50.0979 15 48.8261 15 47.5V12.5Z" stroke="#3B3E44" stroke-width="2" stroke-linecap="round" stroke-linejoin="round"/>
</svg>
