<svg width="48" height="48" viewBox="0 0 48 48" fill="none" xmlns="http://www.w3.org/2000/svg">
<path d="M24 10.5C27.5037 13.5999 32.0767 15.2138 36.75 15C37.4304 17.3145 37.6386 19.7422 37.3622 22.1388C37.0858 24.5353 36.3305 26.8519 35.1411 28.9508C33.9517 31.0497 32.3526 32.8881 30.4387 34.3567C28.5248 35.8254 26.3352 36.8943 24 37.5C21.6648 36.8943 19.4752 35.8254 17.5613 34.3567C15.6474 32.8881 14.0483 31.0497 12.8589 28.9508C11.6695 26.8519 10.9142 24.5353 10.6378 22.1388C10.3614 19.7422 10.5696 17.3145 11.25 15C15.9233 15.2138 20.4962 13.5999 24 10.5Z" stroke="#3B3E44" stroke-width="1.5" stroke-linecap="round" stroke-linejoin="round"/>
</svg>
