<svg width="16" height="16" viewBox="0 0 16 16" fill="none" xmlns="http://www.w3.org/2000/svg">
<path d="M2 14V12.6667C2 11.9594 2.28095 11.2811 2.78105 10.781C3.28115 10.281 3.95942 10 4.66667 10H7.33333C7.97333 10 8.56 10.2253 9.02 10.6007M10.6667 2.08667C11.2403 2.23354 11.7487 2.56714 12.1118 3.03488C12.4748 3.50262 12.6719 4.07789 12.6719 4.67C12.6719 5.26212 12.4748 5.83739 12.1118 6.30513C11.7487 6.77287 11.2403 7.10647 10.6667 7.25334M10.6667 12.6667H14.6667M12.6667 10.6667V14.6667M3.33333 4.66667C3.33333 5.37391 3.61428 6.05219 4.11438 6.55229C4.61448 7.05238 5.29276 7.33333 6 7.33333C6.70724 7.33333 7.38552 7.05238 7.88562 6.55229C8.38572 6.05219 8.66667 5.37391 8.66667 4.66667C8.66667 3.95942 8.38572 3.28115 7.88562 2.78105C7.38552 2.28095 6.70724 2 6 2C5.29276 2 4.61448 2.28095 4.11438 2.78105C3.61428 3.28115 3.33333 3.95942 3.33333 4.66667Z" stroke="white" stroke-width="1.5" stroke-linecap="round" stroke-linejoin="round"/>
</svg>
