<svg width="60" height="60" viewBox="0 0 60 60" fill="none" xmlns="http://www.w3.org/2000/svg">
<rect width="60" height="60" rx="10" fill="#032B63"/>
<path fill-rule="evenodd" clip-rule="evenodd" d="M20.4037 15.2614C18.6968 16.0922 17.0483 17.6644 16.13 19.3374C15.4419 20.5909 15 22.3001 15 23.7074C15 24.1493 15.0978 24.2938 15.6331 24.6427C16.6084 25.2785 17.4248 26.0235 18.0623 26.8596C18.2549 27.1123 18.7163 27.8112 19.0876 28.4129C19.8991 29.7279 20.4614 30.4902 20.913 30.8878C21.731 31.6079 22.9983 32.3196 23.8233 32.5222C24.0801 32.5853 24.6716 32.6655 25.1376 32.7003C25.6037 32.7352 26.1926 32.8167 26.4464 32.8815C27.4227 33.1308 28.6278 33.7029 29.8943 34.5184C31.2916 35.4182 31.9412 35.7283 32.9652 35.9847C33.3445 36.0796 33.6658 36.1168 34.1089 36.1171C35.0434 36.1176 35.6744 35.8988 36.2619 35.3706C36.9955 34.7112 37.0803 33.7528 36.4983 32.7014C35.9639 31.7359 34.7689 30.5557 33.5389 29.7785C33.3709 29.6723 32.8053 29.3892 32.2822 29.1494C31.2099 28.6577 30.7814 28.428 30.0638 27.96C29.5225 27.607 28.6206 26.7706 28.6791 26.6758C28.6991 26.6436 28.9889 26.4842 29.3232 26.3217L29.931 26.0263L30.6275 26.2522C31.3232 26.4777 31.3241 26.4782 31.4517 26.7394C31.522 26.8832 31.6508 27.057 31.738 27.1256C31.8943 27.2485 31.9337 27.2503 34.4733 27.2503C36.9633 27.2503 37.0556 27.2463 37.2161 27.1321C37.5098 26.9229 37.5359 26.7063 37.3621 25.9197C36.9674 24.1339 36.5663 22.7829 36.2355 22.1247C35.5587 20.7785 34.2942 20.185 28.4783 18.484C27.0976 18.0801 25.7398 17.6602 25.4611 17.5508C24.561 17.1974 23.4314 16.519 21.5309 15.1905C21.3811 15.0857 21.187 15 21.0996 15C21.0123 15 20.6991 15.1176 20.4037 15.2614ZM34.4012 28.6803C34.4012 28.693 34.6582 28.8842 34.9722 29.1052C35.6757 29.6001 36.9027 30.8124 37.3225 31.4275C37.7269 32.0198 38.1248 32.87 38.2144 33.333C38.3129 33.8422 38.2579 34.6959 38.0998 35.1107C37.5291 36.6084 35.7503 37.6127 33.8954 37.4847C32.3494 37.378 31.1177 36.9142 29.3311 35.7659C28.2735 35.086 27.7711 34.8144 27.0275 34.52C26.2453 34.2102 25.8962 34.1344 24.7592 34.0275C23.2904 33.8893 22.3924 33.5709 21.1545 32.7495C20.8482 32.5462 20.5639 32.3582 20.5225 32.3316C20.4618 32.2925 20.4506 32.9363 20.4639 35.715L20.4804 39.1468L20.672 39.3383L20.8636 39.5299H32.6937C42.7004 39.5299 44.5472 39.5173 44.6764 39.4482C45.016 39.2664 45.0103 39.341 45.0103 35.089C45.0103 32.6844 44.9874 31.0727 44.9505 30.878C44.8109 30.1418 44.3175 29.4357 43.6675 29.0417C43.0278 28.6539 43.0703 28.657 38.5104 28.657C36.2504 28.657 34.4012 28.6675 34.4012 28.6803ZM21.1081 42.3131C20.8529 42.3736 20.6984 42.5212 20.6217 42.7779C20.4876 43.2263 21.0025 44.0783 21.6817 44.5319C22.415 45.0216 21.418 44.9791 32.5842 44.9965C39.5257 45.0074 42.6114 44.993 42.8251 44.9488C43.5988 44.7888 44.3595 44.1947 44.7137 43.4739C44.8684 43.1592 44.8992 43.0391 44.8681 42.8734C44.8145 42.5876 44.6146 42.3767 44.3363 42.3124C44.05 42.2463 21.3872 42.247 21.1081 42.3131Z" fill="white"/>
</svg>
